inDegrees=no
num_controls=7
num_derivatives=13
num_iterations=197
num_multipliers=7
num_parameters=0
num_slacks=7
num_states=26
objective=5.374488
objective_accelerations=0.630294
objective_balance=0.037311
objective_effort=0.244715
objective_height=4.393377
objective_ligament=0.068791
solver_duration=2184.453016
status=Solve_Succeeded
success=true
DataType=double
version=3
OpenSimVersion=4.4-2022-07-23-0e9fedc
endheader
time	/jointset/ground_pelvis/pelvis_tilt/value	/jointset/ground_pelvis/pelvis_tx/value	/jointset/ground_pelvis/pelvis_ty/value	/jointset/hip_l/hip_flexion_l/value	/jointset/hip_l/hip_adduction_l/value	/jointset/hip_l/hip_rotation_l/value	/jointset/back/lumbar_extension/value	/jointset/patellofemoral_l/patellar_flexion_l/value	/jointset/knee_l/knee_flexion_l/value	/jointset/knee_l/knee_adduction_l/value	/jointset/knee_l/knee_rotation_l/value	/jointset/ankle_l/ankle_angle_l/value	/jointset/subtalar_l/subtalar_angle_l/value	/jointset/ground_pelvis/pelvis_tilt/speed	/jointset/ground_pelvis/pelvis_tx/speed	/jointset/ground_pelvis/pelvis_ty/speed	/jointset/hip_l/hip_flexion_l/speed	/jointset/hip_l/hip_adduction_l/speed	/jointset/hip_l/hip_rotation_l/speed	/jointset/back/lumbar_extension/speed	/jointset/patellofemoral_l/patellar_flexion_l/speed	/jointset/knee_l/knee_flexion_l/speed	/jointset/knee_l/knee_adduction_l/speed	/jointset/knee_l/knee_rotation_l/speed	/jointset/ankle_l/ankle_angle_l/speed	/jointset/subtalar_l/subtalar_angle_l/speed	/forceset/tau_hip_flexion_l	/forceset/tau_hip_adduction_l	/forceset/tau_hip_rotation_l	/forceset/tau_knee_flexion_l	/forceset/tau_ankle_angle_l	/forceset/tau_subtalar_angle_l	/forceset/tau_lumbar_extension	lambda_cid13_p0	lambda_cid13_p1	lambda_cid13_p2	lambda_cid13_p3	lambda_cid13_p4	lambda_cid13_p5	lambda_cid14_p0	/jointset/ground_pelvis/pelvis_tilt/accel	/jointset/ground_pelvis/pelvis_tx/accel	/jointset/ground_pelvis/pelvis_ty/accel	/jointset/hip_l/hip_flexion_l/accel	/jointset/hip_l/hip_adduction_l/accel	/jointset/hip_l/hip_rotation_l/accel	/jointset/back/lumbar_extension/accel	/jointset/patellofemoral_l/patellar_flexion_l/accel	/jointset/knee_l/knee_flexion_l/accel	/jointset/knee_l/knee_adduction_l/accel	/jointset/knee_l/knee_rotation_l/accel	/jointset/ankle_l/ankle_angle_l/accel	/jointset/subtalar_l/subtalar_angle_l/accel	gamma_cid13_p0	gamma_cid13_p1	gamma_cid13_p2	gamma_cid13_p3	gamma_cid13_p4	gamma_cid13_p5	gamma_cid14_p0
0.5	-0.2786845638224311	-0.004952470904900971	0.7758855284218331	0.9764231669403753	-0.4393348119942855	-0.2350364044239361	-0.2518191548578804	0.7975930368640585	0.797593036864087	-0.1284902917386961	-0.1622601128488576	0.157391096493337	-0.007653817111192243	-0.6145549700172768	-0.1416699982635575	-0.4728487632198506	2.151958174870436	-0.220049093280899	0.7436236448660363	-0.1317893219867311	1.967081180699446	1.967081180699437	0.1217132233023216	-0.07105212741694084	0.6001937770358151	0.06612905408200735	-0.1417090416612455	0.01991549290500162	-0.0121578630240869	-0.2232391354897734	0.03339440633979635	0.04395080545816795	0.1491893191706519	-21.77535840600864	-19.22944096045855	7.24655881830559	-3.572254445008267	-524.2899845147086	-70.17805842698164	-25.6825121370326	0.5654450352220286	0.4670321312885032	-0.4340623953125857	-1.122614594890623	0.6975815700395158	-0.2192478155263122	1.023330571069841	-1.244272925014753	-1.244272925014756	0.04105925098621639	0.1520734503883789	-0.4890819227193171	0.5515414694970627	-5.209328184654994e-07	-5.659372928633448e-07	2.452636837393548e-06	8.094192427166177e-08	-5.533607445433228e-07	-4.247612787717934e-07	-4.078511214803988e-07
0.51	-0.2848004135672819	-0.006345660107346612	0.7711363710832253	0.9978824319022098	-0.4415013775944603	-0.2276103442189497	-0.2530867019623415	0.8171985319308995	0.817198531930895	-0.1272748026778169	-0.1629627268648909	0.1633672321443324	-0.006966767892411189	-0.6085298072184341	-0.1369574430639253	-0.4768812713904302	2.139596763755279	-0.2132495123031218	0.7414875075986386	-0.1217426825591967	1.953751869191186	1.953751869191177	0.1213795699934469	-0.06946394949929571	0.5949434025322874	0.07126111370297895	-0.146329987123778	0.02097019411578308	-0.01219346659869533	-0.225902102384884	0.03155333427056074	0.04423655880598441	0.1527831696728821	-22.52449232332201	-19.21449550142105	7.23517417673533	-3.302462114452795	-527.4181546316172	-69.95622655996523	-24.77539615904873	0.6337711024591449	0.4749448473154864	-0.3727381434672921	-1.33767879674783	0.6730448408150624	-0.2262822802656329	0.9919430805323427	-1.417074127485302	-1.417074127485118	-0.07131344188866937	0.1636810529490692	-0.5565229622539701	0.4908840005112293	-5.032493705529337e-07	-4.707249179818766e-07	2.462676424074139e-06	9.820748176422292e-08	-5.301610141217766e-07	-3.514723512369214e-07	-3.985493592059293e-07
0.52	-0.2908534678440954	-0.007691408231192948	0.7663499100398045	1.019209127867509	-0.4435995676890236	-0.2202087425062211	-0.2542544601821397	0.8366627711099068	0.8366627711098699	-0.1260627973140386	-0.1636491608836497	0.1692881625006756	-0.006229028918997622	-0.6019958764098413	-0.1321817825436968	-0.4803095041824747	2.125444375563335	-0.2063739921586149	0.7387319464144749	-0.1118315450541785	1.938830003132782	1.938830003132775	0.1210164838819974	-0.06781612796179093	0.5891527181053808	0.07626700500851134	-0.1509509325863107	0.02202489532656367	-0.01222907017329156	-0.2285650692799953	0.02971226220132478	0.04452231215379945	0.1563770201751126	-23.27582850034944	-19.19979994035307	7.224556913851915	-3.068867675243423	-530.6103091754946	-69.79004965730488	-23.86946698419506	0.6671986371720239	0.4796531954077847	-0.3132073196055802	-1.480810010248149	0.7127694033854354	-0.3431325988795257	0.9962301865665792	-1.562783835043284	-1.562783835043278	0.03517269047123042	0.1640021743603139	-0.5971439073950832	0.5263078064092231	-4.850845022522298e-07	-3.720325199608852e-07	2.476988463701814e-06	1.172269997920422e-07	-5.094515624764338e-07	-2.76710826146513e-07	-3.889725647060179e-07
0.53	-0.2968387801735736	-0.008989135647578526	0.7615322101141111	1.040385631957718	-0.4456286217091286	-0.2128374935129355	-0.2553238136624645	0.8559700276388561	0.8559700276388393	-0.1248546139819273	-0.1643186582043854	0.1751485976257106	-0.005441813850250759	-0.5949856509184209	-0.1273578449117465	-0.4831253897767861	2.109566100410758	-0.1994287586420933	0.7354167600771659	-0.1020752394917738	1.922366763350438	1.92236676335043	0.1206142477106701	-0.06607870581991125	0.5828506688526414	0.08115183827358019	-0.1554386508744016	0.02282332497112299	-0.01222141017575338	-0.2313710048381156	0.02797923413417607	0.04472578724334506	0.1598384935971807	-23.99669708833443	-19.15027397844825	7.203323105547369	-2.791998246732042	-533.8052713729979	-69.61293633075826	-22.96602229935776	0.730017374971453	0.4846678637606177	-0.2501152172059126	-1.684955011245431	0.6863028047565057	-0.341207116028184	0.9599174689263156	-1.726198157360135	-1.726198157360169	-0.07877451813927255	0.1797949123115253	-0.6592851043531748	0.4657069301778463	-4.662755769986103e-07	-2.731229686238863e-07	2.486547759611871e-06	1.384923122999106e-07	-4.92545230546627e-07	-2.019150890754115e-07	-3.781062298412844e-07
0.54	-0.3027515736741686	-0.01023844292431021	0.7566894841249022	1.061394629547706	-0.4475880428982741	-0.2055024954759974	-0.2562966867415956	0.8751050309484759	0.8751050309484794	-0.1236506235609702	-0.1649705447680602	0.1809435023241902	-0.004606523280128788	-0.5874921106332248	-0.1224977546129182	-0.4853147168855766	2.091943075518861	-0.1924474259667325	0.731481755144993	-0.09253546481541322	1.90437935926689	1.904379359266883	0.12017790165116	-0.06429397654964247	0.5760466327943105	0.08588210528353432	-0.1599263691624946	0.02362175461568156	-0.01221375017821471	-0.2341769403962358	0.02624620606702733	0.04492926233288969	0.1632999670192472	-24.72072675312955	-19.10085782586442	7.182866125454303	-2.547382089776714	-537.0761658675796	-69.49219703364822	-22.06684494497304	0.7638615959271406	0.4868837287833772	-0.1878956225013924	-1.829759958112481	0.7199892351532444	-0.4670963178523115	0.9529240093577419	-1.867616695283865	-1.867616695283865	0.02835071283467288	0.173463600038133	-0.6975412685133463	0.4953945553862852	-4.467540780949563e-07	-1.739731625542832e-07	2.49084870077052e-06	1.62242333594216e-07	-4.798466055361367e-07	-1.270815004512027e-07	-3.65813169466535e-07
0.55	-0.3085871526946768	-0.01143903629953052	0.751828016296256	1.082218953059918	-0.4494774409631299	-0.1982096365547779	-0.2571752997528667	0.8940526847809814	0.8940526847809727	-0.1224512174871116	-0.1656041523108398	0.186667926523915	-0.003724648615230076	-0.579547340882967	-0.1176208693944197	-0.4868716374609372	2.072642531490138	-0.1854297431688952	0.7269911414263996	-0.08323691761683778	1.884909098402796	1.884909098402789	0.1196958589745437	-0.06242333193115872	0.5687593280277352	0.09046381338966353	-0.1642866340161083	0.02432360379173212	-0.01215261179274456	-0.2370370631885576	0.02455874801742746	0.04496579269877388	0.1666250895942417	-25.43361746446112	-18.97140711658172	7.138818392919117	-2.222128647066877	-540.2988712676396	-69.26073650431162	-21.17610349421888	0.8211801171009073	0.488133613280117	-0.1236031516575456	-2.022132939453582	0.6926961704402571	-0.4551847329598266	0.9108530483989372	-2.023005285106383	-2.023005285106212	-0.08754274471972072	0.1949860295638172	-0.7561496461711007	0.4349346662344765	-4.229990717821761e-07	-7.811352850363858e-08	2.473548856629076e-06	1.827604161439176e-07	-4.623152692920449e-07	-5.234318895699278e-08	-3.509431202987737e-07
0.5600000000000001	-0.3143410049271772	-0.01259085228358645	0.7469541766865353	1.102841884869004	-0.451296654526339	-0.1909647119375637	-0.2579624206974937	0.9127983811042187	0.9127983811041983	-0.121256844037381	-0.1662188291800729	0.1923171127628858	-0.00279788172366843	-0.5711467530316771	-0.1127422763800409	-0.4877890731004625	2.051664734893361	-0.1784105256374069	0.7218948943439272	-0.07423705148660273	1.863987857413335	1.86398785741333	0.1191713768255299	-0.06050784184026218	0.5609990406435005	0.09486055061612221	-0.1686468988697186	0.02502545296778267	-0.01209147340726816	-0.2398971859808793	0.02287128996782733	0.04500232306465785	0.1699502121692394	-26.14864923696982	-18.84172339368232	7.094897250115938	-1.931789600109818	-543.5816009334549	-69.08044299757454	-20.29738257580551	0.8550252161335459	0.4872252879594366	-0.05999863533431649	-2.165210471723146	0.7202961818834096	-0.5882229906281181	0.8931877956896577	-2.157812720357197	-2.157812720357196	0.01986281835517835	0.1824326945206915	-0.7921377920452427	0.4584003794521777	-3.941638565784445e-07	1.379789912425598e-08	2.430328070127517e-06	1.994001722000946e-07	-4.389846795676312e-07	2.228078998121861e-08	-3.329806845793984e-07
0.5700000000000001	-0.3200087331278277	-0.01369393452166522	0.7420743655473948	1.123246965579204	-0.4530456019767216	-0.1837735620909362	-0.2586610513390711	0.9313277704938474	0.9313277704938524	-0.1200678586909419	-0.1668139622110686	0.1978864208303252	-0.001827961246957869	-0.5623275831338184	-0.1078792394954849	-0.4880645668788204	2.029082795515439	-0.1713816563169497	0.7162388232683063	-0.06555133540235232	1.841658587403947	1.841658587403941	0.1186156119664842	-0.05851429896789292	0.5527885236266634	0.09908989682539147	-0.1728554115976111	0.02557841296748559	-0.01197211019395626	-0.2428367123734703	0.02123897171459816	0.04492233919046652	0.173122401820453	-26.84735421880337	-18.65653639064161	7.03326209232842	-1.573548834173461	-546.8008082102657	-68.84281888429165	-19.43262605556091	0.9060041758498903	0.4851244122594104	0.004878270723115621	-2.345040801292656	0.6934435587209929	-0.5690105252330713	0.8469247287676773	-2.305134543476759	-2.305134543476909	-0.09473643578372387	0.2089610681093408	-0.8465978157728309	0.3998623494499848	-3.628463300445047e-07	9.898619984778522e-08	2.367810667570914e-06	2.12764674299913e-07	-4.128573744498516e-07	9.295450564267156e-08	-3.131523260288125e-07
0.58	-0.3255861413696518	-0.0147485300861873	0.7371950400744326	1.143418155869532	-0.454724408483581	-0.1766419152269058	-0.2592746925770109	0.9496269371029328	0.9496269371029633	-0.1188847190526432	-0.1673889306164373	0.2033714058957422	-0.0008168151865974816	-0.5530827612664462	-0.1030449416687011	-0.4876919398647918	2.004886650918878	-0.1643823369327281	0.7099942978245256	-0.05723917075910442	1.817943301304673	1.817943301304666	0.1180022351974673	-0.05647491671495197	0.5441344402390312	0.103105667346088	-0.1770639243255061	0.02613137296718807	-0.01185274698064659	-0.2457762387660611	0.01960665346136922	0.04484235531627481	0.1762945914716642	-27.54805285070322	-18.4705880432157	6.971036276467577	-1.248951752560418	-550.075944829043	-68.65175767783838	-18.58342817519114	0.9401556100362158	0.4814774764050024	0.06962552314300983	-2.488051515450936	0.7143861946363003	-0.7059138642600921	0.8184775074891536	-2.435015938334415	-2.435015938334413	0.00834043636093796	0.1916005706350274	-0.8808510662042605	0.4156852417376328	-3.282960259642478e-07	1.754188004167916e-07	2.280162788291464e-06	2.218637293867993e-07	-3.830878353314098e-07	1.584836923855549e-07	-2.908939284422317e-07
